<?xml version="1.0" encoding="utf-8"?>
<!-- Generator: Adobe Illustrator 16.0.0, SVG Export Plug-In . SVG Version: 6.00 Build 0)  -->
<!DOCTYPE svg PUBLIC "-//W3C//DTD SVG 1.1//EN" "http://www.w3.org/Graphics/SVG/1.1/DTD/svg11.dtd">
<svg version="1.1" xmlns="http://www.w3.org/2000/svg" xmlns:xlink="http://www.w3.org/1999/xlink" x="0px" y="0px" width="670px"
	 height="100px" viewBox="0 0 670 100" enable-background="new 0 0 670 100" xml:space="preserve">
<g id="Layer_2">
	<g id="EV9vHI.tif">
		<g>
			<g>
				<path fill="#FFFFFF" d="M512.527,76.359c0-25.697,0-51.394,0-77.103c21.832,0,43.668,0,65.523,0c0,25.692,0,51.397,0,77.103
					C556.219,76.359,534.375,76.359,512.527,76.359z M567.608,42.328c-0.883,1.926-1.679,3.787-2.584,5.593
					c-0.529,1.055-1.152,2.086-1.88,3.014c-0.691,0.882-1.499,1.713-2.389,2.393c-1.394,1.064-3.069,0.846-4.7,0.757
					c-1.367-0.074-2.3-0.737-2.839-1.959c-0.805-1.824-1.689-3.624-2.339-5.503c-1.389-4.017-2.688-8.065-3.951-12.124
					c-1.358-4.369-2.651-8.759-3.937-13.15c-0.517-1.765-0.122-2.177,1.294-2.953c1.268-0.694,2.62-1.239,3.957-1.797
					c0.912-0.381,1.84-0.695,2.881-0.41c0.578,0.158,0.902-0.21,0.871-0.91c-0.069-1.518-0.5-2.95-1.186-4.295
					c-0.375-0.734-0.929-0.76-1.473-0.139c-0.554,0.63-1.16,1.146-2.048,1.245c-1.785,0.198-3.563,0.462-5.352,0.617
					c-0.534,0.046-1.288,0.009-1.602-0.316c-0.74-0.771-1.324-1.819-1.157-2.895c0.189-1.217-0.303-1.934-1.146-2.592
					c-1.982-1.55-3.696-0.547-4.291,1.611c-0.235,0.857-0.122,1.602,0.562,2.349c0.708,0.773,0.65,1.887,0.584,2.905
					c-0.017,0.253-0.173,0.601-0.374,0.72c-1.203,0.712-2.407,1.436-3.67,2.031c-1.486,0.7-2.961,1.582-4.745,0.852
					c-0.5-0.205-0.887,0.177-0.842,0.762c0.056,0.713,0.138,1.439,0.337,2.122c0.239,0.822,0.572,1.625,0.944,2.396
					c0.267,0.552,0.768,0.653,1.302,0.191c0.445-0.386,1.002-0.764,1.562-0.874c1.812-0.356,3.643-0.623,5.475-0.852
					c1.089-0.137,1.897,0.3,2.205,1.062c0.229,0.565,0.458,1.135,0.618,1.722c1.496,5.488,3.012,10.97,4.449,16.474
					c0.853,3.263,1.643,6.547,2.325,9.849c0.345,1.667,0.412,3.394,0.557,5.097c0.051,0.594-0.081,1.18-0.591,1.604
					c-0.467,0.388-0.91,0.807-1.386,1.185c-1.892,1.506-3.95,1.724-6.226,0.944c-1.812-0.62-3.466-1.521-5.093-2.488
					c-0.782-0.465-1.5-1.038-2.362-1.643c1.141-0.632,2.155-1.193,3.269-1.81c-3.042-0.53-5.969-1.04-9.035-1.574
					c1.416,4.062,2.784,7.987,4.153,11.913c0.076-0.017,0.153-0.034,0.229-0.051c0-1.57,0-3.141,0-4.762
					c0.635,0.717,1.192,1.457,1.861,2.079c1.486,1.381,2.969,2.78,4.564,4.029c2.04,1.598,4.392,2.49,7.026,2.354
					c2.021-0.104,4.035-0.354,6.056-0.464c1.751-0.096,3.431,0.033,4.597,1.688c0.424,0.603,1.106,1.022,1.827,1.665
					c0.255-0.896,0.498-1.594,0.646-2.31c0.232-1.113,0.335-2.274,1.478-2.919c1.943-1.096,3.829-2.314,5.845-3.255
					c2.639-1.232,4.418-3.206,5.613-5.768c1.33-2.851,1.919-5.907,2.346-9c0.113-0.826,0.244-1.649,0.367-2.473
					c0.057-0.014,0.113-0.028,0.17-0.042c0.88,1.488,1.759,2.975,2.639,4.463c0.086-0.032,0.172-0.065,0.258-0.098
					c-0.923-4.063-1.846-8.127-2.798-12.32c-2.31,2.085-4.488,4.053-6.713,6.061C565.104,42.328,566.295,42.328,567.608,42.328z"/>
				<path fill-rule="evenodd" clip-rule="evenodd" d="M567.608,42.328c-1.313,0-2.504,0-3.838,0
					c2.225-2.008,4.403-3.976,6.713-6.061c0.952,4.193,1.875,8.257,2.798,12.32c-0.086,0.033-0.172,0.065-0.258,0.098
					c-0.88-1.488-1.759-2.975-2.639-4.463c-0.057,0.014-0.113,0.028-0.17,0.042c-0.123,0.824-0.254,1.647-0.367,2.473
					c-0.427,3.093-1.016,6.149-2.346,9c-1.195,2.562-2.975,4.535-5.613,5.768c-2.016,0.94-3.901,2.159-5.845,3.255
					c-1.143,0.645-1.245,1.806-1.478,2.919c-0.148,0.716-0.392,1.413-0.646,2.31c-0.721-0.643-1.403-1.062-1.827-1.665
					c-1.166-1.655-2.846-1.784-4.597-1.688c-2.021,0.11-4.034,0.359-6.056,0.464c-2.635,0.137-4.986-0.756-7.026-2.354
					c-1.596-1.249-3.078-2.648-4.564-4.029c-0.669-0.622-1.227-1.362-1.861-2.079c0,1.621,0,3.191,0,4.762
					c-0.076,0.017-0.153,0.034-0.229,0.051c-1.369-3.926-2.737-7.852-4.153-11.913c3.066,0.534,5.993,1.044,9.035,1.574
					c-1.113,0.616-2.128,1.178-3.269,1.81c0.862,0.604,1.58,1.178,2.362,1.643c1.627,0.967,3.281,1.868,5.093,2.488
					c2.275,0.779,4.334,0.562,6.226-0.944c0.476-0.378,0.919-0.797,1.386-1.185c0.51-0.424,0.642-1.01,0.591-1.604
					c-0.145-1.703-0.212-3.431-0.557-5.097c-0.683-3.302-1.473-6.586-2.325-9.849c-1.438-5.503-2.953-10.986-4.449-16.474
					c-0.16-0.587-0.39-1.157-0.618-1.722c-0.308-0.761-1.116-1.198-2.205-1.062c-1.832,0.229-3.663,0.496-5.475,0.852
					c-0.561,0.11-1.117,0.488-1.562,0.874c-0.534,0.462-1.035,0.361-1.302-0.191c-0.372-0.772-0.705-1.575-0.944-2.396
					c-0.199-0.683-0.281-1.409-0.337-2.122c-0.045-0.584,0.342-0.966,0.842-0.762c1.784,0.73,3.259-0.152,4.745-0.852
					c1.263-0.595,2.467-1.318,3.67-2.031c0.201-0.119,0.357-0.467,0.374-0.72c0.066-1.018,0.124-2.132-0.584-2.905
					c-0.684-0.747-0.797-1.492-0.562-2.349c0.595-2.158,2.309-3.161,4.291-1.611c0.843,0.659,1.335,1.375,1.146,2.592
					c-0.167,1.076,0.417,2.124,1.157,2.895c0.313,0.326,1.067,0.363,1.602,0.316c1.788-0.155,3.566-0.419,5.352-0.617
					c0.888-0.099,1.494-0.615,2.048-1.245c0.544-0.621,1.098-0.595,1.473,0.139c0.686,1.345,1.116,2.777,1.186,4.295
					c0.031,0.699-0.293,1.067-0.871,0.91c-1.041-0.285-1.969,0.029-2.881,0.41c-1.337,0.559-2.689,1.103-3.957,1.797
					c-1.416,0.776-1.811,1.188-1.294,2.953c1.285,4.392,2.578,8.781,3.937,13.15c1.263,4.059,2.562,8.107,3.951,12.124
					c0.649,1.879,1.534,3.679,2.339,5.503c0.539,1.222,1.472,1.885,2.839,1.959c1.631,0.089,3.307,0.308,4.7-0.757
					c0.89-0.68,1.697-1.511,2.389-2.393c0.728-0.928,1.351-1.958,1.88-3.014C565.93,46.114,566.726,44.253,567.608,42.328z
					 M536.226,9.896c0.562,0.012,1.024-0.418,1.042-0.968c0.014-0.425-0.409-0.887-0.809-0.884
					c-0.535,0.004-1.057,0.425-1.067,0.861C535.379,9.421,535.771,9.886,536.226,9.896z"/>
				<path fill-rule="evenodd" clip-rule="evenodd" fill="#FFFFFF" d="M536.226,9.896c-0.455-0.01-0.847-0.475-0.834-0.992
					c0.011-0.436,0.532-0.857,1.067-0.861c0.399-0.003,0.822,0.459,0.809,0.884C537.25,9.478,536.787,9.908,536.226,9.896z"/>
			</g>
		</g>
	</g>
</g>
<g id="Layer_1">
	<rect x="9" y="8.75" fill="none" width="511" height="82.5"/>
	<text transform="matrix(1 0 0 1 9 68.75)"><tspan x="0" y="0" fill="#3B9CD6" font-family="'HappyMonkey-Regular'" font-size="80">Happily</tspan><tspan x="299.195" y="0" font-family="'HappyMonkey-Regular'" font-size="80"> </tspan><tspan x="318.475" y="0" stroke="#000000" stroke-width="0.25" stroke-miterlimit="10" font-family="'HappyMonkey-Regular'" font-size="80">Adrif</tspan></text>
</g>
</svg>
