<?xml version="1.0" encoding="utf-8"?>
<!-- Generator: Adobe Illustrator 16.0.0, SVG Export Plug-In . SVG Version: 6.00 Build 0)  -->
<!DOCTYPE svg PUBLIC "-//W3C//DTD SVG 1.1//EN" "http://www.w3.org/Graphics/SVG/1.1/DTD/svg11.dtd">
<svg version="1.1" id="Icons" xmlns="http://www.w3.org/2000/svg" xmlns:xlink="http://www.w3.org/1999/xlink" x="0px" y="0px"
	 width="22.75px" height="22.75px" viewBox="38.625 38.625 22.75 22.75" enable-background="new 38.625 38.625 22.75 22.75"
	 xml:space="preserve">
<path id="RSS" fill="#555555" d="M44.146,55.846c0.52,0.518,0.835,1.223,0.836,2.006c-0.001,0.781-0.316,1.482-0.833,2h-0.002
	c-0.518,0.516-1.224,0.83-2.011,0.83c-0.785,0-1.491-0.314-2.009-0.83c-0.516-0.518-0.834-1.219-0.834-2
	c0-0.783,0.318-1.488,0.834-2.006l0,0c0.518-0.516,1.224-0.832,2.009-0.832C42.922,55.014,43.628,55.332,44.146,55.846z
	 M44.146,55.846L44.146,55.846c0.001,0,0.001,0,0.001,0H44.146z M40.126,59.852L40.126,59.852
	C40.125,59.852,40.125,59.852,40.126,59.852L40.126,59.852z M39.294,46.574v4.09c2.67,0.002,5.194,1.051,7.085,2.941
	c1.888,1.889,2.934,4.416,2.937,7.096h0.002v0.008h4.105c-0.002-3.896-1.586-7.424-4.146-9.986
	C46.717,48.162,43.19,46.577,39.294,46.574z M39.301,39.292v4.087c9.544,0.008,17.302,7.777,17.308,17.33h4.1
	c-0.002-5.904-2.404-11.253-6.281-15.134C50.549,41.696,45.203,39.294,39.301,39.292z"/>
</svg>
