<?xml version="1.0" encoding="utf-8"?>
<!-- Generator: Adobe Illustrator 16.0.0, SVG Export Plug-In . SVG Version: 6.00 Build 0)  -->
<!DOCTYPE svg PUBLIC "-//W3C//DTD SVG 1.1//EN" "http://www.w3.org/Graphics/SVG/1.1/DTD/svg11.dtd">
<svg version="1.1" id="Icons" xmlns="http://www.w3.org/2000/svg" xmlns:xlink="http://www.w3.org/1999/xlink" x="0px" y="0px"
	 width="22.75px" height="22.75px" viewBox="38.625 38.625 22.75 22.75" enable-background="new 38.625 38.625 22.75 22.75"
	 xml:space="preserve">
<path id="StumbleUpon" fill="#6495ED" d="M60.812,56.854c0,2.041-1.661,3.701-3.703,3.701h-0.605c-2.041,0-3.701-1.66-3.701-3.701
	v-4.61c0-0.717-0.554-1.329-1.271-1.329h-5.008c-0.717,0-1.33,0.569-1.33,1.231c0,0.685,0.623,1.295,1.357,1.332l0.764,0.041
	c2.026,0.104,3.623,1.729,3.559,3.623c-0.062,1.882-1.757,3.413-3.775,3.413h-7.911v-2.403h7.911c0.726,0,1.356-0.498,1.374-1.09
	c0.021-0.583-0.567-1.106-1.284-1.144l-0.761-0.04c-2.004-0.104-3.636-1.779-3.636-3.732c0-1.988,1.661-3.604,3.703-3.604h5.009
	c2.042,0,3.703,1.661,3.703,3.702v4.61c0,0.716,0.582,1.298,1.298,1.298h0.605c0.717,0,1.3-0.582,1.3-1.298V41.333h2.136
	c0.092,0,0.177,0.021,0.268,0.027V56.854z"/>
</svg>
