<?xml version="1.0" encoding="utf-8"?>
<!-- Generator: Adobe Illustrator 16.0.0, SVG Export Plug-In . SVG Version: 6.00 Build 0)  -->
<!DOCTYPE svg PUBLIC "-//W3C//DTD SVG 1.1//EN" "http://www.w3.org/Graphics/SVG/1.1/DTD/svg11.dtd">
<svg version="1.1" id="Icons" xmlns="http://www.w3.org/2000/svg" xmlns:xlink="http://www.w3.org/1999/xlink" x="0px" y="0px"
	 width="22.75px" height="22.75px" viewBox="38.625 38.625 22.75 22.75" enable-background="new 38.625 38.625 22.75 22.75"
	 xml:space="preserve">
<path id="Twitter__x28_alt_x29_" fill="#6495ED" d="M58.789,49.433c1.275-0.125,2.142-0.81,2.476-1.74
	c-0.461,0.333-1.891,0.699-2.681,0.35c-0.038-0.219-0.081-0.426-0.123-0.615c-0.6-2.609-2.661-4.711-4.819-4.458
	c0.176-0.083,0.353-0.159,0.53-0.229c0.237-0.101,1.63-0.37,1.411-0.95c-0.186-0.51-1.887,0.387-2.209,0.503
	c0.424-0.188,1.123-0.512,1.196-1.086c-0.646,0.104-1.284,0.466-1.775,0.994c0.178-0.225,0.312-0.501,0.342-0.796
	c-1.729,1.305-2.74,3.936-3.557,6.488c-0.641-0.735-1.211-1.313-1.721-1.635c-1.433-0.907-3.143-1.854-5.833-3.032
	c-0.081,1.05,0.439,2.447,1.946,3.375c-0.326-0.05-0.922,0.064-1.399,0.2c0.192,1.204,0.828,2.193,2.544,2.673
	c-0.784,0.061-1.189,0.273-1.556,0.726c0.355,0.838,1.228,1.823,2.797,1.621c-1.746,0.89-0.711,2.532,0.708,2.287
	c-2.422,2.955-6.239,2.737-8.431,0.268c5.724,9.21,18.162,5.449,20.017-3.426c1.389,0.015,2.207-0.568,2.712-1.212
	C60.564,49.902,59.403,49.735,58.789,49.433z"/>
</svg>
