<?xml version="1.0" encoding="utf-8"?>
<!-- Generator: Adobe Illustrator 16.0.0, SVG Export Plug-In . SVG Version: 6.00 Build 0)  -->
<!DOCTYPE svg PUBLIC "-//W3C//DTD SVG 1.1//EN" "http://www.w3.org/Graphics/SVG/1.1/DTD/svg11.dtd">
<svg version="1.1" id="Icons" xmlns="http://www.w3.org/2000/svg" xmlns:xlink="http://www.w3.org/1999/xlink" x="0px" y="0px"
	 width="22.75px" height="22.75px" viewBox="0 0 22.75 22.75" enable-background="new 0 0 22.75 22.75" xml:space="preserve">
<path id="RSS" fill="#999999" d="M5.521,17.22c0.52,0.519,0.834,1.223,0.836,2.006c-0.002,0.781-0.316,1.482-0.834,2H5.521
	c-0.518,0.517-1.224,0.83-2.01,0.83c-0.785,0-1.492-0.313-2.01-0.83c-0.516-0.518-0.834-1.219-0.834-2
	c0-0.783,0.318-1.487,0.834-2.006l0,0c0.518-0.516,1.225-0.832,2.01-0.832S5.002,16.706,5.521,17.22z M5.521,17.22L5.521,17.22
	L5.521,17.22L5.521,17.22z M1.5,21.226L1.5,21.226C1.499,21.226,1.499,21.226,1.5,21.226L1.5,21.226z M0.668,7.948v4.09
	c2.67,0.002,5.194,1.051,7.085,2.941c1.889,1.889,2.934,4.416,2.938,7.096h0.002v0.008h4.104c-0.002-3.896-1.586-7.424-4.146-9.986
	C8.091,9.536,4.563,7.951,0.668,7.948z M0.675,0.666v4.087c9.545,0.008,17.303,7.777,17.309,17.33h4.1
	c-0.002-5.904-2.404-11.253-6.281-15.134C11.923,3.069,6.577,0.668,0.675,0.666z"/>
</svg>
