<?xml version="1.0" encoding="utf-8"?>
<!-- Generator: Adobe Illustrator 16.0.0, SVG Export Plug-In . SVG Version: 6.00 Build 0)  -->
<!DOCTYPE svg PUBLIC "-//W3C//DTD SVG 1.1//EN" "http://www.w3.org/Graphics/SVG/1.1/DTD/svg11.dtd">
<svg version="1.1" id="Icons" xmlns="http://www.w3.org/2000/svg" xmlns:xlink="http://www.w3.org/1999/xlink" x="0px" y="0px"
	 width="22.75px" height="22.75px" viewBox="0 0 22.75 22.75" enable-background="new 0 0 22.75 22.75" xml:space="preserve">
<path id="Twitter__x28_alt_x29_" fill="#999999" d="M20.165,10.351c1.275-0.125,2.143-0.811,2.477-1.74
	C22.181,8.943,20.75,9.31,19.96,8.96c-0.038-0.219-0.081-0.426-0.123-0.615c-0.6-2.609-2.661-4.711-4.818-4.457
	c0.176-0.084,0.353-0.16,0.529-0.229c0.237-0.101,1.63-0.37,1.411-0.95c-0.187-0.51-1.888,0.387-2.209,0.503
	c0.424-0.188,1.123-0.512,1.196-1.086C15.3,2.23,14.662,2.591,14.171,3.12c0.178-0.226,0.312-0.501,0.342-0.796
	c-1.729,1.305-2.74,3.936-3.557,6.488c-0.641-0.735-1.211-1.313-1.721-1.636C7.802,6.269,6.092,5.322,3.401,4.144
	c-0.08,1.051,0.439,2.447,1.947,3.375c-0.326-0.05-0.923,0.064-1.399,0.2c0.192,1.204,0.827,2.193,2.544,2.673
	c-0.784,0.062-1.189,0.273-1.557,0.727c0.355,0.838,1.229,1.823,2.797,1.622c-1.746,0.889-0.711,2.531,0.709,2.287
	c-2.422,2.955-6.239,2.736-8.432,0.268c5.725,9.209,18.162,5.449,20.018-3.426c1.389,0.014,2.207-0.568,2.711-1.213
	C21.94,10.82,20.778,10.652,20.165,10.351z"/>
</svg>
